<svg xmlns="http://www.w3.org/2000/svg" viewBox="0 0 181.5 81.1">
<style type="text/css">
	.st0{fill-rule:evenodd;clip-rule:evenodd;fill:#FFFFFF;}
</style>
<path class="st0" d="M0,25.3V38c0,0,32.7,0,37,0s9.8-4,9.8-10.6c0-2.6,1-4.4-2.1-7.9L40,13.9c-2.7-2.5,0.3-2.5,2.6-2.5
	c1.3,0,15.6,0,15.6,0V38h12.4V11.4h16.7V0H33.2c-6.6,0-9.8,6.3-9.6,9.6c0.2,3.3,0.8,7.4,6.3,12.4c5,4.5-2.5,3.3-3.2,3.3
	C22.8,25.3,0,25.3,0,25.3L0,25.3z"/>
<path class="st0" d="M114.6,0h-20L83.4,37.9h12.5l2-5.3h13.2l2,5.3h12.2L114.6,0L114.6,0z M100.7,23.5L105,9.6l4,13.9H100.7
	L100.7,23.5z"/>
<path class="st0" d="M164.7,25.3c-4.8,0-4.8-1.8-4.8-1.8c4.1,0,7.8-6,7.8-12.1S161.7,0,156.9,0S130,0,130,0v37.9h13.7V25.2
	c0,0,5.8,6.8,8.9,9.6c3,2.8,3.3,3,7.4,3c4.1,0,21.5,0,21.5,0V25.1C181.4,25.3,169.6,25.3,164.7,25.3L164.7,25.3z M152.3,16.5
	c-3.5,0-8.7,0-8.7,0V9.7c0,0,5.9,0,8.7,0C156.3,9.6,157,16.5,152.3,16.5L152.3,16.5z"/>
<polygon class="st0" points="0,42.8 13.9,42.8 17.5,55.4 20.8,42.8 35.5,42.8 39.2,55.4 43,42.8 55.2,42.8 44.1,80.7 32.9,80.7 
	28,62.8 22.6,80.7 11.2,80.7 "/>
<path class="st0" d="M83.9,43h-20L52.7,80.9h12.5l2-5.3h13.1l2,5.3h12.2L83.9,43L83.9,43z M70,66.5l4.3-13.9l4,13.9H70L70,66.5z"/>
<path class="st0" d="M165,54.2c-2.3,0-4.8,0.3-2,2.8l4.7,5.6c3.1,3.5,3.1,5,3.1,7.6c0,6.6-6.5,10.6-10.8,10.6L130.1,81
	c-4.1,0-4.4-0.3-7.4-3c-3-2.8-8.9-9.6-8.9-9.6v12.7h-13.7V43.2c0,0,22.1,0,26.9,0c4.8,0,10.8,5.2,10.8,11.4s-3.7,12.1-7.8,12.1
	c0,0,1.8,1.8,4.8,1.8s14.7,0,14.7,0c0.7,0,8.2,1.2,3.2-3.3c-5.5-5-6.1-9.1-6.3-12.4s2.7-9.9,9.2-9.9h25.6v11.4L165,54.2L165,54.2z
	 M122.5,59.4c-3.5,0-8.7,0-8.7,0v-6.8c0,0,5.9,0,8.7,0C126.4,52.6,127.1,59.4,122.5,59.4L122.5,59.4z"/>
</svg>
